<svg width="19" height="25" viewBox="0 0 19 25" fill="none" xmlns="http://www.w3.org/2000/svg">
<path d="M2.17094 24.9993H1.57675C1.51594 24.9791 1.4558 24.9557 1.39433 24.9387C0.562198 24.7137 0.0255083 24.0426 0.00303611 23.1922C-0.00291242 22.9646 0.00171422 22.737 0.00171422 22.5087C0.00171422 15.8219 0.00171422 9.13452 0.00171422 2.44776C0.00237516 0.976452 0.992474 0.000797104 2.48225 0.000144928C7.15779 0.000144928 11.8333 -0.00115942 16.5089 0.00405798C16.7614 0.00405798 17.0231 0.0249276 17.2657 0.0901452C18.3443 0.378407 18.9894 1.26928 18.9894 2.44776C18.9901 9.25713 18.9795 16.0658 19 22.8752C19.0033 24.0276 18.4322 24.7717 17.4316 24.983C17.4249 24.9844 17.4197 24.9941 17.4144 25H16.8202C16.2557 24.8774 15.8512 24.5233 15.4566 24.1307C13.7864 22.4683 12.1043 20.8176 10.4262 19.163C9.82736 18.5728 9.16377 18.5735 8.56561 19.1637C6.88746 20.8183 5.20469 22.4689 3.53448 24.1313C3.13989 24.5239 2.73407 24.8761 2.17094 25V24.9993Z" fill="#340061"/>
</svg>
