<svg width="31" height="35" viewBox="0 0 31 35" fill="none" xmlns="http://www.w3.org/2000/svg">
<path d="M0.00410357 17.5084C0.00410357 14.9984 0.0122239 12.4884 4.67506e-05 9.97837C-0.00502706 9.01377 0.402906 8.33233 1.21674 7.8656C5.55891 5.37424 9.9031 2.88601 14.2351 0.375986C15.1037 -0.127056 15.9054 -0.123943 16.771 0.377024C21.0807 2.87149 25.3995 5.34935 29.7204 7.82307C30.587 8.31885 31.003 9.02933 31 10.0582C30.9837 15.0129 30.9837 19.9687 31 24.9234C31.003 25.9668 30.5799 26.6866 29.7001 27.1896C25.3894 29.6561 21.0807 32.1267 16.7832 34.617C15.9024 35.1273 15.0997 35.1284 14.2168 34.616C9.89701 32.1101 5.56398 29.6281 1.23298 27.144C0.405948 26.67 -0.00401229 25.9772 4.67506e-05 24.9991C0.0122239 22.5025 0.00410357 20.005 0.00410357 17.5084ZM1.82459 10.7086V11.2116C1.82459 15.74 1.82864 20.2684 1.81647 24.7958C1.81545 25.1795 1.92606 25.4005 2.26195 25.5924C5.96887 27.7082 9.66666 29.8397 13.3675 31.967C13.7592 32.192 14.1529 32.414 14.5781 32.6557C14.5852 32.525 14.5913 32.4503 14.5923 32.3756C14.6329 27.7051 14.6694 23.0357 14.7222 18.3652C14.7252 18.0623 14.573 17.9648 14.3691 17.8486C10.7027 15.7628 7.03741 13.6749 3.3721 11.5871C2.87791 11.306 2.38372 11.0249 1.82459 10.7065V10.7086ZM2.81803 9.10297C2.96213 9.19528 3.04331 9.25129 3.12855 9.30004C7.21094 11.6254 11.2943 13.9488 15.3727 16.2835C15.5847 16.4049 15.7268 16.3789 15.9186 16.2669C19.6955 14.067 23.4755 11.8723 27.2545 9.67758C27.5549 9.50333 27.8552 9.32597 28.1932 9.1289C28.0876 9.05837 28.0379 9.02104 27.9851 8.99096C23.9332 6.65933 19.8792 4.32979 15.8303 1.99298C15.5726 1.84466 15.3737 1.88096 15.1301 2.02098C12.6673 3.44609 10.1994 4.86083 7.73253 6.27868C6.115 7.20905 4.49747 8.13942 2.81905 9.10505L2.81803 9.10297ZM16.424 32.6432C16.564 32.5727 16.6431 32.5364 16.7193 32.4928C20.7387 30.183 24.7572 27.8711 28.7807 25.5675C29.0719 25.4005 29.1805 25.2013 29.1795 24.8591C29.1694 20.2809 29.1724 15.7027 29.1724 11.1255C29.1724 11.0145 29.1724 10.9025 29.1724 10.7428C29.0618 10.7978 28.9958 10.8268 28.9329 10.8631C24.8911 13.2082 20.8503 15.5564 16.8055 17.8963C16.5934 18.0187 16.5508 18.166 16.5488 18.3932C16.5112 23.0097 16.4676 27.6263 16.425 32.2429C16.424 32.357 16.425 32.4711 16.425 32.6443L16.424 32.6432Z" fill="black"/>
</svg>
