<svg width="24" height="25" viewBox="0 0 24 25" fill="none" xmlns="http://www.w3.org/2000/svg">
<path d="M10.0631 12.8698C10.0631 12.7527 10.0631 12.6348 10.0631 12.5177C10.0631 8.94802 10.0631 5.37751 10.0631 1.80781C10.0631 0.953192 10.4404 0.353905 11.1291 0.10183C12.1781 -0.282787 13.271 0.466119 13.3141 1.60859C13.3303 2.04443 13.3181 2.48109 13.3181 2.91693C13.3181 6.1321 13.3181 9.34728 13.3181 12.5616V12.943C13.4417 12.8292 13.5157 12.7649 13.584 12.6966C14.3305 11.951 15.0737 11.2029 15.8234 10.4605C16.526 9.76442 17.5351 9.74002 18.1872 10.3962C18.8345 11.0476 18.8199 12.0469 18.1328 12.7373C16.3869 14.492 14.637 16.2419 12.8823 17.9869C12.1692 18.6952 11.2072 18.6927 10.499 17.9877C8.74501 16.2419 6.99512 14.4912 5.24849 12.7381C4.56545 12.0526 4.54837 11.0427 5.19238 10.397C5.83883 9.74816 6.84713 9.75954 7.53423 10.4393C8.35632 11.2517 9.16703 12.0746 9.98261 12.8934C10.0094 12.8861 10.0371 12.8779 10.0639 12.8706L10.0631 12.8698Z" fill="#340061"/>
<path d="M11.6993 24.9987C8.38088 24.9987 5.06244 24.9995 1.744 24.9978C0.838967 24.9978 0.209593 24.5165 0.0355798 23.7049C-0.169332 22.7511 0.535664 21.8225 1.51225 21.7607C1.60332 21.755 1.69521 21.7567 1.78628 21.7567C8.40283 21.7567 15.0186 21.7567 21.6351 21.7567C22.5288 21.7567 23.1679 22.2429 23.3476 23.052C23.555 23.9855 22.8524 24.9287 21.8969 24.9881C21.5936 25.0068 21.2887 24.9978 20.9838 24.9978C17.889 24.9978 14.7933 24.9978 11.6985 24.9978L11.6993 24.9987Z" fill="#340061"/>
</svg>
