<svg width="36" height="35" viewBox="0 0 36 35" fill="none" xmlns="http://www.w3.org/2000/svg">
<path d="M33.8932 33.3819C34.1747 33.3819 34.4095 33.3729 34.6434 33.3839C35.1379 33.4068 35.4931 33.756 35.4861 34.1998C35.4792 34.6306 35.1339 34.9649 34.6603 34.9968C34.5737 35.0027 34.4862 34.9987 34.3996 34.9987C23.4617 34.9987 12.5237 34.9987 1.58576 34.9987C1.51113 34.9987 1.43651 35.0007 1.36189 34.9977C0.861405 34.9739 0.508182 34.6425 0.503207 34.1958C0.499227 33.75 0.85245 33.4058 1.34995 33.3839C1.58377 33.3739 1.81759 33.3819 2.09619 33.3819C2.09619 33.1889 2.09619 33.0306 2.09619 32.8724C2.09619 29.1969 2.09619 25.5214 2.09619 21.8449C2.09619 20.8858 2.31311 20.6728 3.28521 20.6728C5.70603 20.6728 8.12684 20.6728 10.5487 20.6728C11.4014 20.6728 11.6521 20.9286 11.6521 21.7892C11.6521 25.4896 11.6521 29.19 11.6521 32.8913C11.6521 33.0386 11.6521 33.1849 11.6521 33.357H13.2282V32.9172C13.2282 27.59 13.2282 22.2628 13.2282 16.9357C13.2282 16.1725 13.4879 15.9068 14.253 15.9068C16.7484 15.9048 19.2439 15.9048 21.7393 15.9068C22.5025 15.9068 22.7602 16.1735 22.7602 16.9406C22.7602 22.2559 22.7602 27.5701 22.7602 32.8854C22.7602 33.0326 22.7602 33.1799 22.7602 33.355H24.3363V32.8874C24.3363 26.0199 24.3363 19.1535 24.3363 12.2861C24.3363 11.3766 24.5741 11.1378 25.4815 11.1368C27.9152 11.1368 30.348 11.1368 32.7817 11.1368C33.6484 11.1368 33.8912 11.3776 33.8922 12.2383C33.8922 19.1057 33.8922 25.9722 33.8922 32.8396C33.8922 33.0107 33.8922 33.1809 33.8922 33.3829L33.8932 33.3819ZM32.2862 12.7537H25.98V33.355H32.2862V12.7537ZM14.85 17.5167V33.363H21.1443V17.5167H14.85ZM10.0074 33.366V22.2927H3.71604V33.366H10.0074Z" fill="black"/>
<path d="M32.5599 1.61875C32.0614 1.61875 31.6694 1.61875 31.2774 1.61875C30.346 1.61875 29.4157 1.62074 28.4844 1.61775C27.8924 1.61576 27.5322 1.30532 27.5322 0.808823C27.5322 0.313316 27.8924 0.00188391 28.4854 0.00188391C30.4963 -0.000106075 32.5072 -0.00110107 34.519 0.00188391C35.2504 0.0028789 35.5956 0.430726 35.4215 1.13618C34.918 3.17889 34.4016 5.21863 33.8942 7.26135C33.8056 7.61755 33.6146 7.87526 33.2464 7.94789C32.9141 8.01356 32.5957 7.91406 32.4495 7.6076C32.347 7.39368 32.3032 7.10115 32.3549 6.87032C32.6007 5.77184 32.8892 4.68233 33.1609 3.58983C33.1897 3.47242 33.2136 3.35302 33.2564 3.15402C32.6952 3.6157 32.1967 4.03359 31.6903 4.44154C24.4925 10.2394 16.4032 14.2323 7.41048 16.3635C5.4981 16.8173 3.54791 17.1138 1.61365 17.4739C1.02163 17.5844 0.596772 17.3157 0.511203 16.8133C0.431603 16.3456 0.791788 15.9546 1.39177 15.875C4.19665 15.5049 6.95477 14.9138 9.67109 14.1308C15.853 12.3497 21.603 9.64535 26.9123 6.00766C28.8486 4.68034 30.7013 3.24655 32.5609 1.61676L32.5599 1.61875Z" fill="black"/>
</svg>
