<svg width="35" height="35" viewBox="0 0 35 35" fill="none" xmlns="http://www.w3.org/2000/svg">
<path d="M0 29.0553C0.0849382 28.9813 0.174446 28.9128 0.253904 28.8333C4.19394 24.8951 8.13124 20.9542 12.0758 17.0205C12.2558 16.8406 12.2859 16.7127 12.1845 16.4716C9.45737 9.99622 12.928 2.57372 19.6545 0.516933C20.3779 0.295911 21.1423 0.212804 21.8885 0.0648473C21.9762 0.0474943 22.0629 0.0219195 22.1506 0C22.8118 0 23.4722 0 24.1334 0C24.6458 0.0904181 25.1609 0.168049 25.6705 0.27308C30.2718 1.22201 33.9862 5.06067 34.8046 9.70579C35.9115 15.9848 32.1322 21.8593 25.9545 23.4046C23.4274 24.0366 20.9414 23.8156 18.5339 22.8164C18.2937 22.7169 18.1631 22.7424 17.9841 22.9242C16.8415 24.085 15.6889 25.2376 14.5263 26.3783C14.4057 26.4961 14.2002 26.5765 14.0294 26.5847C13.4869 26.6103 12.9417 26.5948 12.3608 26.5948C12.3608 27.1848 12.3772 27.7182 12.3517 28.2497C12.3434 28.4214 12.2695 28.6287 12.1535 28.7511C11.516 29.4178 10.862 30.0699 10.1962 30.7093C10.0812 30.8198 9.88754 30.8983 9.72771 30.9038C9.10391 30.9257 8.47829 30.9129 7.82436 30.9129C7.82436 31.5577 7.81248 32.1468 7.82984 32.7341C7.83714 32.9807 7.77595 33.1606 7.59238 33.3341C7.08823 33.8127 6.6133 34.3205 6.10733 34.7973C5.99134 34.9068 5.79863 34.9909 5.64063 34.9918C3.76103 35.0055 1.88051 35.0009 0.000914206 35.0018C0.000914206 33.019 0.000914206 31.0362 0.000914206 29.0543L0 29.0553ZM5.74657 28.8635C6.45804 28.8635 7.14759 28.7968 7.81888 28.879C8.79886 28.9995 9.54139 28.6927 10.0958 27.8981C10.1862 27.7693 10.2711 27.6031 10.2739 27.4524C10.2912 26.6213 10.2812 25.7892 10.283 24.9572C10.283 24.8376 10.2958 24.717 10.3049 24.548C11.2749 24.548 12.2083 24.5426 13.1408 24.5526C13.3627 24.5554 13.5198 24.4887 13.6769 24.3307C14.9354 23.0603 16.2122 21.8072 17.4598 20.5258C17.7356 20.2427 17.9256 20.2007 18.2791 20.4007C20.3888 21.5944 22.6557 21.9935 25.0321 21.514C30.3704 20.4363 33.7588 15.3647 32.7606 10.0063C31.6545 4.06973 25.2887 0.515109 19.6545 2.6888C14.1025 4.83052 11.7014 11.1835 14.4505 16.4616C14.5747 16.6999 14.7025 16.9374 14.8468 17.2105C14.7254 17.3128 14.6139 17.3941 14.5171 17.4909C10.9634 21.0418 7.41063 24.5946 3.85875 28.1483C3.25505 28.752 2.65866 29.3639 2.05952 29.9713C2.05587 30.8252 2.05313 31.6792 2.04948 32.5341C2.04948 32.6665 2.04948 32.7989 2.04948 32.9542C2.9564 32.9542 3.82039 32.9441 4.68348 32.9597C4.94468 32.9642 5.11547 32.8674 5.31092 32.7049C5.66985 32.4071 5.81507 32.0637 5.75296 31.607C5.72374 31.3942 5.74657 31.175 5.74657 30.9586C5.74657 30.2782 5.74657 29.5978 5.74657 28.8644V28.8635Z" fill="white"/>
<path d="M25.47 13.559C23.2315 13.5508 21.4377 11.7452 21.4478 9.51028C21.4578 7.26992 23.2644 5.47069 25.4938 5.47891C27.7131 5.48713 29.5315 7.3165 29.5251 9.53403C29.5187 11.7579 27.6958 13.5672 25.4691 13.559H25.47ZM25.4773 11.494C26.5742 11.494 27.4556 10.619 27.4601 9.52672C27.4638 8.4417 26.5697 7.54483 25.4828 7.54483C24.3896 7.54483 23.5101 8.42526 23.5101 9.52124C23.5101 10.6236 24.3777 11.494 25.4773 11.494Z" fill="white"/>
</svg>
