<svg width="26" height="35" viewBox="0 0 26 35" fill="none" xmlns="http://www.w3.org/2000/svg">
<path d="M25.1429 17.499C25.1429 22.9914 25.1429 28.4848 25.1429 33.9772C25.1429 34.8621 25.0088 35 24.139 35C16.4273 35 8.71464 35 1.00292 35C0.166209 35 0.00661058 34.8432 0.00661058 34.0179C0.00661058 24.5421 0.00849932 15.0672 0 5.59234C0 5.18249 0.117102 4.8784 0.408912 4.59131C1.84246 3.17759 3.25241 1.73932 4.69824 0.336928C4.89655 0.144276 5.2488 0.0148978 5.53023 0.0139534C11.7942 -0.00398957 18.0582 -0.000212091 24.3222 0.00167665C24.9512 0.00167665 25.1419 0.22077 25.1419 0.926214C25.1429 6.45077 25.1419 11.9753 25.1419 17.4999L25.1429 17.499ZM23.8387 33.6911V1.28224C23.6602 1.28224 23.5205 1.28224 23.3807 1.28224C17.5587 1.28224 11.7376 1.27846 5.91553 1.29546C5.6851 1.29546 5.40557 1.43995 5.23464 1.60616C4.02868 2.78001 2.85105 3.98314 1.64981 5.16077C1.39483 5.41008 1.28434 5.66034 1.28529 6.02297C1.29473 15.07 1.29284 24.1171 1.29473 33.1641C1.29473 33.3322 1.3089 33.4994 1.3174 33.692H23.8387V33.6911Z" fill="black"/>
<path d="M12.7752 28.9239C10.486 28.8408 8.54064 27.9361 6.84833 26.4978C5.95684 25.7404 5.19379 24.8282 4.3873 23.9726C4.08038 23.6477 4.04922 23.2709 4.33441 22.9036C6.10133 20.6276 8.20444 18.8088 11.0895 18.1373C13.5779 17.5584 15.817 18.2554 17.8757 19.6493C19.1214 20.4926 20.1875 21.5361 21.114 22.7204C21.5569 23.287 21.571 23.5042 21.1338 24.051C19.4311 26.1805 17.43 27.904 14.7187 28.6057C14.086 28.769 13.423 28.821 12.7742 28.9239H12.7752ZM5.57059 23.3757C6.38842 24.4372 7.28368 25.2919 8.30738 26.0077C10.1347 27.2845 12.1141 27.9597 14.3551 27.3865C16.6443 26.8 18.3744 25.3731 19.8362 23.5844C19.9042 23.5004 19.857 23.2199 19.7654 23.1245C19.1572 22.4899 18.5623 21.8326 17.888 21.2736C16.4951 20.1167 14.9312 19.2791 13.0717 19.2366C9.79004 19.162 7.5906 21.0724 5.56965 23.3757H5.57059Z" fill="black"/>
<path d="M12.5674 8.29984C15.1456 8.29984 17.7237 8.297 20.3018 8.30456C20.4982 8.30456 20.7504 8.31589 20.875 8.4311C21.0252 8.56993 21.1565 8.84096 21.1281 9.02889C21.0998 9.21399 20.8883 9.4123 20.7069 9.51996C20.5615 9.6059 20.3415 9.57851 20.1545 9.57851C15.0927 9.5804 10.0309 9.5804 4.96904 9.5804C4.90577 9.5804 4.84344 9.58135 4.78016 9.5804C4.2787 9.56435 3.99823 9.34525 3.98595 8.9609C3.97367 8.5652 4.28154 8.30361 4.78583 8.30361C7.38001 8.30078 9.97325 8.30267 12.5674 8.30173V8.29984Z" fill="black"/>
<path d="M10.2485 13.779C8.48817 13.779 6.72692 13.779 4.96661 13.779C4.82496 13.779 4.68141 13.7875 4.54259 13.7658C4.20545 13.7129 3.9958 13.5108 3.99391 13.1661C3.99202 12.8328 4.15918 12.5957 4.50954 12.5372C4.63231 12.5164 4.7598 12.5145 4.8854 12.5145C8.43811 12.5145 11.9908 12.5145 15.5435 12.5164C15.638 12.5164 15.7324 12.5183 15.8269 12.5202C16.232 12.5268 16.4898 12.7138 16.5181 13.1321C16.5427 13.5118 16.2622 13.7743 15.8146 13.7762C13.9598 13.7828 12.1042 13.779 10.2494 13.78L10.2485 13.779Z" fill="black"/>
<path d="M9.72734 23.4192C9.73773 21.6296 11.142 20.214 12.8863 20.2338C14.69 20.2537 16.0641 21.6561 16.0508 23.4645C16.0376 25.1908 14.6145 26.5828 12.8645 26.581C11.1411 26.5791 9.7179 25.1446 9.72734 23.4192ZM14.758 23.3758C14.7372 22.3218 13.8826 21.4908 12.8475 21.5191C11.8012 21.5475 10.9919 22.3974 11.007 23.4532C11.0221 24.4863 11.8947 25.3108 12.9458 25.2853C13.9619 25.2607 14.7778 24.4004 14.758 23.3758Z" fill="black"/>
</svg>
