<svg width="57" height="35" viewBox="0 0 57 35" fill="none" xmlns="http://www.w3.org/2000/svg">
<path d="M18.3864 17.6827C16.9014 16.1959 15.0642 15.7747 13.0443 15.8012C11.5498 15.8207 10.0534 15.8118 8.56081 15.8561C4.97975 15.9641 2.33155 18.4668 2.25349 21.7978C2.23445 22.5925 2.27443 23.389 2.23826 24.1819C2.22113 24.5607 2.37534 24.7607 2.73896 24.8616C4.52474 25.3625 6.30289 25.8917 8.10199 26.3519C8.91682 26.5607 9.38706 26.9501 9.3033 27.5714C9.21572 28.2209 8.68456 28.5802 7.83927 28.4758C5.27484 28.159 2.86842 27.3678 0.583853 26.2581C0.324935 26.1324 0.00509522 25.7996 0.00890284 25.566C0.0336523 23.6739 -0.114845 21.7394 0.260206 19.8986C0.821829 17.1375 2.78275 15.2755 5.58325 14.2047C5.77173 14.1322 5.96211 14.0631 6.16392 13.987C2.48957 10.4985 3.48716 6.14617 6.1068 3.86471C8.98726 1.35493 13.2804 1.30714 16.1856 3.73373C18.868 5.97271 20.0313 10.4082 16.2712 13.9994C17.8933 14.4915 19.2735 15.3092 20.4063 16.5428C21.1107 16.318 21.817 16.0915 22.5367 15.8614C17.4192 11.7445 18.2341 5.72315 21.8875 2.46999C25.5466 -0.786706 31.2485 -0.829185 34.9723 2.37973C38.6277 5.53023 39.6709 11.633 34.4336 15.8614C35.1342 16.0862 35.8233 16.3074 36.5525 16.5411C37.6605 15.3322 39.0522 14.4932 40.6971 13.9976C36.9847 10.4719 38.0413 6.05059 40.7295 3.77798C43.608 1.34431 47.8745 1.34077 50.7568 3.77267C53.4012 6.00457 54.5511 10.4135 50.7949 13.9976C52.3351 14.4879 53.6811 15.2384 54.7529 16.3694C56.2055 17.9021 56.9861 19.6774 56.9899 21.7323C56.9899 22.881 56.969 24.0297 56.9994 25.1766C57.0146 25.7696 56.7329 26.1112 56.1884 26.366C54.098 27.3413 51.9124 28.0404 49.6088 28.4209C49.3994 28.4563 49.1862 28.4829 48.973 28.4935C48.2362 28.5289 47.7336 28.1696 47.6593 27.5607C47.587 26.982 48.0268 26.5129 48.735 26.3713C49.7764 26.1607 50.8254 25.9731 51.8458 25.6952C52.6835 25.4669 53.4888 25.1341 54.2941 24.812C54.4711 24.7412 54.7053 24.5164 54.6977 24.3713C54.6406 22.966 54.7282 21.5217 54.4045 20.1659C53.8086 17.6579 51.3013 15.9074 48.5389 15.8543C46.6655 15.8189 44.7903 15.8172 42.9169 15.8455C41.2244 15.872 39.8023 16.511 38.6981 17.5499C39.3302 18.203 39.9698 18.8172 40.5524 19.4739C42.3667 21.5164 43.1492 23.8934 43.134 26.5218C43.1264 27.8475 43.1187 29.1714 43.1492 30.4971C43.1644 31.1484 42.8979 31.5644 42.2696 31.8635C37.3426 34.214 32.1128 35.2565 26.5918 34.9467C22.3463 34.7078 18.3312 33.6334 14.5787 31.7714C14.2304 31.598 13.8591 31.1059 13.8515 30.7537C13.8115 28.8793 13.7982 26.9979 13.9391 25.1306C14.1599 22.2084 15.6201 19.8438 18.0246 17.9729C18.1332 17.888 18.2379 17.8013 18.3864 17.6827ZM28.4785 17.6455L28.4708 17.7588C27.3076 17.7588 26.1444 17.7393 24.9812 17.7623C20.7147 17.849 17.0499 20.6491 16.3721 24.5341C16.0866 26.1713 16.2484 27.8758 16.1665 29.5466C16.1437 30.028 16.3531 30.2387 16.7929 30.4263C19.858 31.736 23.0602 32.5307 26.43 32.7697C31.2961 33.1148 35.9071 32.2706 40.3163 30.3608C40.6723 30.2068 40.7999 30.0174 40.7923 29.6599C40.7637 28.4245 40.7599 27.1891 40.7618 25.9536C40.7675 22.2173 37.8909 18.7676 33.9233 18.0367C32.1509 17.711 30.2966 17.7623 28.4785 17.6437V17.6455ZM28.4918 2.11069C24.5737 2.10538 21.2135 5.21872 21.2078 8.8595C21.2021 12.5003 24.5528 15.626 28.4689 15.6331C32.387 15.6384 35.7472 12.5268 35.7548 8.88251C35.7624 5.23996 32.4117 2.11777 28.4937 2.11246L28.4918 2.11069ZM6.07634 8.89489C6.08396 11.5233 8.4047 13.6525 11.2604 13.649C14.0362 13.6454 16.3702 11.4702 16.3721 8.88427C16.374 6.26653 14.0305 4.08949 11.2109 4.09126C8.38756 4.09126 6.06873 6.26299 6.07634 8.89666V8.89489ZM50.8882 8.85773C50.8825 6.22759 48.5522 4.08064 45.7136 4.08949C42.936 4.09834 40.5981 6.27361 40.5924 8.85419C40.5867 11.5003 42.936 13.6543 45.8164 13.649C48.5941 13.6419 50.8939 11.4702 50.8882 8.85773Z" fill="black"/>
</svg>
