<svg width="31" height="35" viewBox="0 0 31 35" fill="none" xmlns="http://www.w3.org/2000/svg">
<path d="M20.3964 0C20.8153 0.245437 21.2684 0.454932 21.646 0.743501C22.669 1.52602 23.6588 2.34244 24.6933 3.17117C25.0114 2.92163 25.3238 2.6803 25.6339 2.43486C26.1477 2.0282 26.6558 1.61537 27.173 1.21178C27.7589 0.754797 28.4226 0.615134 29.148 0.893433C29.8564 1.16557 30.2042 1.68006 30.258 2.36092C30.2672 2.47389 30.266 2.5889 30.266 2.70186C30.266 12.5635 30.266 22.4252 30.2683 32.2868C30.2683 32.8003 30.1962 33.286 29.7957 33.6876C29.0977 34.3879 27.9969 34.4187 27.1444 33.7523C26.4361 33.1987 25.738 32.635 25.0354 32.0763C24.9313 31.9941 24.8249 31.914 24.6979 31.8155C23.8568 32.4891 23.0249 33.1556 22.1941 33.8211C21.9012 34.0562 21.6128 34.2976 21.3153 34.5276C20.5086 35.1509 19.5737 35.1622 18.7693 34.5327C17.7073 33.7019 16.6649 32.8527 15.6133 32.0116C15.5389 31.952 15.4611 31.8966 15.3638 31.8226C14.39 32.6031 13.4265 33.3754 12.463 34.1466C12.3017 34.276 12.1449 34.4074 11.979 34.5327C11.1471 35.1612 10.2225 35.1561 9.40317 34.506C8.39504 33.7071 7.39721 32.8978 6.39366 32.0938C6.28152 32.0044 6.1671 31.9171 6.03893 31.8165C5.22419 32.4635 4.42433 33.094 3.62904 33.7297C3.11411 34.1415 2.53738 34.3417 1.84622 34.1733C1.08298 33.9864 0.596651 33.476 0.506251 32.7654C0.487943 32.6185 0.474211 32.4706 0.474211 32.3228C0.473067 22.4385 0.474212 12.5543 0.471924 2.669C0.471924 2.15451 0.557746 1.67082 0.968549 1.27751C1.67687 0.598703 2.74908 0.57611 3.59242 1.2354C4.30075 1.78789 4.99991 2.35168 5.70366 2.90931C5.80779 2.99146 5.9142 3.07156 6.04236 3.17015C6.88342 2.4975 7.71418 1.83205 8.54494 1.1666C8.84818 0.924241 9.13197 0.659292 9.4581 0.443636C9.7293 0.265976 10.0463 0.145825 10.3426 0C10.5967 0 10.8507 0 11.1047 0C11.5659 0.288569 12.0568 0.545302 12.4825 0.871867C13.4551 1.61537 14.3957 2.39276 15.3695 3.1722C16.3513 2.38454 17.3023 1.59996 18.2841 0.848248C18.7006 0.528871 19.1835 0.280353 19.6355 0C19.8895 0 20.1436 0 20.3976 0H20.3964ZM2.34743 32.5518C3.12898 31.9294 3.85905 31.3533 4.58224 30.7721C5.60524 29.9505 6.48864 29.9526 7.50249 30.7721C8.55753 31.6255 9.61945 32.4706 10.6974 33.3353C10.8988 33.1792 11.091 33.0334 11.2787 32.8824C12.2159 32.1318 13.1485 31.3759 14.0914 30.6314C14.8912 29.9998 15.8341 30.0019 16.6374 30.6242C16.8583 30.7957 17.0734 30.9723 17.292 31.1469C18.1994 31.874 19.1068 32.6 20.0234 33.3333C20.1127 33.2675 20.1825 33.2213 20.2465 33.169C21.2684 32.3495 22.2903 31.53 23.311 30.7084C24.2218 29.9762 25.1464 29.9701 26.063 30.694C26.7484 31.2363 27.4304 31.7816 28.1159 32.3238C28.1948 32.3864 28.283 32.4409 28.3905 32.5148V2.49648C28.3379 2.5088 28.3093 2.50675 28.2944 2.51907C27.5815 3.08388 26.8663 3.64767 26.1568 4.21762C25.1316 5.04019 24.2504 5.03814 23.2366 4.21762C22.1815 3.36424 21.1196 2.51907 20.0406 1.65439C19.8403 1.81049 19.6481 1.95631 19.4593 2.10624C18.5221 2.85693 17.5895 3.61276 16.6466 4.35728C15.8479 4.98782 14.9027 4.98577 14.1005 4.3655C13.8797 4.19503 13.6645 4.01737 13.446 3.84279C12.5385 3.11572 11.6311 2.38968 10.7145 1.65645C10.615 1.72936 10.536 1.78276 10.4616 1.84232C9.43979 2.66181 8.42022 3.48439 7.39836 4.30286C6.51954 5.00631 5.59037 5.01247 4.70468 4.31723C3.99865 3.76269 3.29948 3.19993 2.59574 2.64128C2.52594 2.58582 2.44584 2.54064 2.34857 2.47697V32.5518H2.34743Z" fill="black"/>
<path d="M15.3333 18.3143C12.5561 18.3143 9.77772 18.3143 7.0005 18.3143C6.8609 18.3143 6.71901 18.3195 6.58284 18.2999C6.13656 18.2352 5.799 17.884 5.79785 17.4969C5.79785 17.0964 6.15487 16.739 6.61717 16.6856C6.71672 16.6743 6.81971 16.6774 6.92155 16.6774C12.5526 16.6774 18.1849 16.6774 23.816 16.6774C23.9178 16.6774 24.0197 16.6743 24.1204 16.6856C24.5838 16.738 24.9408 17.0933 24.9431 17.4948C24.9443 17.881 24.6055 18.2352 24.1604 18.2999C24.0242 18.3195 23.8823 18.3143 23.7427 18.3143C20.9392 18.3143 18.1368 18.3143 15.3333 18.3143Z" fill="black"/>
<path d="M15.3724 21.5934C18.1507 21.5934 20.9279 21.5934 23.7063 21.5934C23.8585 21.5934 24.013 21.5883 24.1617 21.6078C24.5874 21.6633 24.9158 21.9939 24.9421 22.378C24.965 22.72 24.6938 23.0732 24.3036 23.1739C24.1366 23.217 23.9546 23.2304 23.7795 23.2304C18.1736 23.2334 12.5666 23.2324 6.96064 23.2324C6.31182 23.2324 5.96624 23.0373 5.84724 22.6091C5.71564 22.1336 6.04634 21.6787 6.58416 21.6068C6.73407 21.5873 6.8874 21.5924 7.03959 21.5924C9.81795 21.5924 12.5952 21.5924 15.3735 21.5924L15.3724 21.5934Z" fill="black"/>
<path d="M11.264 13.3963C9.7673 13.3963 8.27056 13.3963 6.77381 13.3963C6.38475 13.3963 6.08151 13.2545 5.90758 12.9393C5.74166 12.6394 5.74852 12.3139 6.01629 12.0879C6.21082 11.9236 6.51406 11.7727 6.76924 11.7706C9.76272 11.7491 12.7562 11.7532 15.7497 11.7593C16.3161 11.7604 16.7246 12.1208 16.7269 12.5757C16.7292 13.043 16.3104 13.3922 15.7165 13.3942C14.2324 13.4004 12.7482 13.3963 11.264 13.3963Z" fill="black"/>
</svg>
