<svg width="18" height="19" viewBox="0 0 18 19" fill="none" xmlns="http://www.w3.org/2000/svg">
<path d="M0.00940623 19C0.00623163 18.9265 0.000940623 18.8625 0.000940623 18.7979C0.000940623 17.0037 -0.00117578 15.209 0.000940623 13.4149C0.00305703 11.3884 1.33322 9.75719 3.32951 9.42015C4.01046 9.30533 4.71893 9.35189 5.44009 9.32385C5.41364 9.79316 5.39195 10.2127 5.36602 10.6323C5.32052 11.3762 5.27131 12.1196 5.2274 12.8635C5.21152 13.1339 5.24697 13.1815 5.50517 13.2582C6.00994 13.4085 6.51523 13.5561 7.04539 13.7122C6.88613 13.8858 6.74856 14.0519 6.59406 14.2C6.4475 14.3408 6.43427 14.4741 6.52105 14.6572C7.1729 16.0318 7.81628 17.4112 8.46179 18.7889C8.49195 18.853 8.5184 18.9186 8.55332 18.9995H0.00940623V19Z" fill="#340061"/>
<path d="M9.09766 18.9936C9.32464 18.509 9.54475 18.0392 9.76485 17.5693C10.2119 16.6148 10.6596 15.6603 11.1072 14.7058C11.2458 14.4101 11.2442 14.4005 11.0156 14.154C10.886 14.0143 10.7569 13.8741 10.6093 13.7138C11.113 13.564 11.5961 13.4201 12.0797 13.2772C12.4331 13.173 12.4469 13.1529 12.4236 12.7778C12.3574 11.7042 12.2924 10.6312 12.2278 9.55767C12.2241 9.49894 12.2278 9.43968 12.2278 9.3836C12.241 9.37301 12.2511 9.3582 12.2611 9.35767C13.322 9.31746 14.3776 9.32222 15.3395 9.86984C16.7458 10.6709 17.5744 11.8778 17.6331 13.4947C17.6992 15.3196 17.6485 17.1492 17.6485 18.9931H9.09766V18.9936Z" fill="#340061"/>
<path d="M13.3835 4.53016C13.3862 7.03439 11.3613 9.06614 8.85971 9.06984C6.34913 9.07355 4.31209 7.03915 4.31421 4.53016C4.31633 2.03069 6.35072 -0.00105779 8.85019 4.13172e-07C11.3544 0.00105861 13.3809 2.02646 13.3835 4.53016ZM7.59728 7.0164H8.1031C8.13326 7.36085 8.18247 7.45185 8.33855 7.46138C8.50469 7.47143 8.5576 7.38572 8.61104 7.01535H9.10892C9.10892 7.25027 9.10786 7.47355 9.10892 7.6963C9.10998 7.85662 9.17717 7.97249 9.35072 7.96984C9.52426 7.9672 9.58511 7.85132 9.58352 7.68942C9.58141 7.4672 9.58299 7.24445 9.58299 7.01535H10.092C10.1163 7.20053 10.0571 7.44127 10.3259 7.4545C10.6327 7.47037 10.5571 7.20106 10.5899 7.00053H11.3221V6.27196C11.5232 6.24868 11.7766 6.30952 11.7729 6.02328C11.7698 5.74339 11.519 5.79894 11.3296 5.77672V5.26773C11.5486 5.26773 11.7581 5.26878 11.9677 5.26773C12.1814 5.26667 12.2883 5.1873 12.2893 5.0328C12.2904 4.87831 12.1809 4.79418 11.9708 4.79312C11.756 4.79153 11.5407 4.79312 11.3285 4.79312V4.28413C11.5142 4.26138 11.7677 4.32381 11.7729 4.04392C11.7788 3.74868 11.5116 3.81746 11.3333 3.78995V3.2836C11.5655 3.2836 11.7825 3.28677 11.9994 3.28254C12.1872 3.27884 12.3015 3.18095 12.2878 3.0328C12.2719 2.86032 12.1581 2.80476 11.9978 2.80741C11.7761 2.81111 11.5539 2.80847 11.31 2.80847V2.05714H10.5814C10.5682 1.85714 10.6221 1.61905 10.3486 1.61429C10.0528 1.609 10.1211 1.87513 10.0904 2.05027H9.58299C9.58299 1.82328 9.58035 1.61323 9.58405 1.40265C9.58723 1.23757 9.54067 1.11164 9.35284 1.09947C9.19569 1.08942 9.11051 1.20106 9.10839 1.41111C9.10627 1.62646 9.10839 1.84127 9.10839 2.05027H8.5941C8.58405 1.86191 8.63379 1.63598 8.37823 1.61693C8.0576 1.59259 8.13961 1.87566 8.10257 2.05132H7.59781C7.59781 1.81852 7.59781 1.60106 7.59781 1.38413C7.59781 1.2254 7.54014 1.11111 7.365 1.1C7.21157 1.09048 7.12532 1.19577 7.12321 1.39101C7.12109 1.6127 7.12268 1.83492 7.12268 2.07249H6.38352V2.80952C6.14278 2.80952 5.92691 2.80794 5.71051 2.80952C5.51157 2.81111 5.41262 2.89101 5.41315 3.04497C5.41421 3.19736 5.51421 3.27937 5.71315 3.28148C5.92903 3.28413 6.14543 3.28201 6.36924 3.28201V3.79259C6.18564 3.81429 5.9449 3.74974 5.93061 4.02011C5.91368 4.33862 6.20204 4.24445 6.37082 4.29418V4.79312C6.14331 4.79312 5.92691 4.79101 5.71104 4.79365C5.51368 4.79577 5.41315 4.87937 5.41315 5.03228C5.41315 5.18572 5.51262 5.26561 5.71209 5.26773C5.92797 5.26984 6.14437 5.26773 6.36977 5.26773V5.77937C6.17876 5.79736 5.93114 5.74074 5.93008 6.02593C5.92903 6.31534 6.18511 6.24286 6.38299 6.2746V7.00476H7.12268C7.12268 7.2455 7.12056 7.46244 7.12321 7.67884C7.12532 7.87355 7.21209 7.9799 7.36553 7.96931C7.53961 7.95714 7.59781 7.84286 7.59781 7.68413C7.59781 7.4672 7.59781 7.24974 7.59781 7.01482L7.59728 7.0164Z" fill="#340061"/>
<path d="M8.8168 18.4274C8.35172 17.4364 7.89881 16.4708 7.4459 15.5052C7.31415 15.2248 7.18823 14.9417 7.04855 14.6655C6.98664 14.5433 6.98717 14.4586 7.09246 14.357C7.27765 14.1787 7.44907 13.9861 7.62103 13.7946C7.79352 13.602 7.74325 13.4258 7.49246 13.3502C6.95648 13.1888 6.41892 13.0327 5.88188 12.8734C5.82632 12.857 5.77183 12.8359 5.70728 12.8142C5.77606 11.6856 5.84431 10.5639 5.9131 9.44169C5.92685 9.43799 5.94061 9.43376 5.95437 9.43005C6.90516 11.1332 7.85595 12.8364 8.82738 14.5771C9.79669 12.8406 10.748 11.1364 11.6993 9.43217C11.7131 9.43429 11.7269 9.43587 11.7406 9.43799C11.8094 10.5581 11.8776 11.6782 11.9475 12.8205C11.6708 12.9031 11.3956 12.9861 11.1205 13.0681C10.811 13.1602 10.5015 13.2502 10.1919 13.3428C9.90146 13.4301 9.85278 13.5946 10.0533 13.8147C10.2311 14.0099 10.4173 14.1973 10.5882 14.3983C10.6279 14.4449 10.6522 14.547 10.6284 14.5983C10.0464 15.8533 9.45754 17.1052 8.86918 18.357C8.86177 18.3734 8.84749 18.3867 8.81574 18.4279L8.8168 18.4274Z" fill="#340061"/>
<path d="M10.8304 2.55603V6.51H6.87329V2.55603H10.8304Z" fill="#340061"/>
</svg>
