<svg width="16" height="17" viewBox="0 0 16 17" fill="none" xmlns="http://www.w3.org/2000/svg">
<path d="M7.9996 13.9271C8.75638 13.9271 9.44756 13.8447 10.0779 13.7023L8.67238 12.2968C8.45399 12.3136 8.23239 12.3272 7.9996 12.3272C3.71891 12.3272 2.06055 9.25044 1.65896 8.32727C1.82215 7.95127 2.19814 7.22249 2.86533 6.48971L1.74696 5.37134C0.516587 6.70491 0.0501987 8.04807 0.041399 8.07447C-0.0137997 8.23847 -0.0137997 8.41686 0.041399 8.58086C0.0581985 8.63366 1.89335 13.9271 7.9996 13.9271ZM7.9996 2.72741C6.53004 2.72741 5.32287 3.0442 4.31649 3.51219L1.36537 0.561859L0.234194 1.69303L14.6338 16.0927L15.765 14.9615L13.1099 12.3064C15.201 10.7456 15.9474 8.61446 15.9586 8.58086C16.0138 8.41686 16.0138 8.23847 15.9586 8.07447C15.941 8.02087 14.1058 2.72741 7.9996 2.72741ZM11.9771 11.1736L10.1531 9.34964C10.3051 9.03765 10.3995 8.69446 10.3995 8.32727C10.3995 7.0145 9.31237 5.92733 7.9996 5.92733C7.63241 5.92733 7.28922 6.02172 6.97803 6.17452L5.53166 4.72816C6.23644 4.48176 7.05082 4.32737 7.9996 4.32737C12.2803 4.32737 13.9387 7.40409 14.3402 8.32727C14.0986 8.88085 13.4075 10.2008 11.9771 11.1736Z" fill="#340061" fill-opacity="0.08"/>
</svg>
